<?xml version="1.0" encoding="UTF-8" standalone="no"?>
<!-- Created with Inkscape (http://www.inkscape.org/) -->

<svg
   width="1280"
   height="360"
   viewBox="0 0 338.66666 95.25"
   version="1.1"
   id="svg5"
   xmlns="http://www.w3.org/2000/svg"
   xmlns:svg="http://www.w3.org/2000/svg">
  <defs
     id="defs2">
    <rect
       x="307.59503"
       y="118.99633"
       width="952.25098"
       height="125.01848"
       id="rect1617" />
  </defs>
  <g
     id="layer1">
    <circle
       style="fill:#ffffff;fill-opacity:1;stroke:none;stroke-width:6.05251;stroke-miterlimit:4;stroke-dasharray:none;stroke-opacity:1;paint-order:stroke markers fill"
       id="path4363"
       cx="41.433575"
       cy="47.625"
       r="28.117067" />
    <g
       aria-label="OPENCOMPUTINGS"
       transform="matrix(0.26458333,0,0,0.26458333,-6.3112391,1.6602421)"
       id="text1615"
       style="font-size:96px;line-height:1.25;font-family:Trueno;-inkscape-font-specification:Trueno;white-space:pre;shape-inside:url(#rect1617);stroke:#ffffff;stroke-width:7.04882;stroke-miterlimit:4;stroke-dasharray:none;stroke-opacity:1;paint-order:stroke markers fill;fill:#000000;fill-opacity:1">
      <path
         d="m 309.8997,173.53307 c 0,19.68 15.552,34.464 36.288,34.464 20.832,0 36.384,-14.88 36.384,-34.464 0,-19.488 -15.552,-34.08 -36.384,-34.08 -20.736,0 -36.288,14.496 -36.288,34.08 z m 17.472,0.096 c 0,-11.328 8.64,-19.872 19.008,-19.872 10.368,0 18.624,8.544 18.624,19.872 0,11.328 -8.256,20.064 -18.624,20.064 -10.272,0 -19.008,-8.736 -19.008,-20.064 z"
         style="font-weight:bold;-inkscape-font-specification:'Trueno Bold';stroke:#ffffff;stroke-width:7.04882;stroke-miterlimit:4;stroke-dasharray:none;stroke-opacity:1;paint-order:stroke markers fill;fill:#000000;fill-opacity:1"
         id="path942" />
      <path
         d="m 391.59555,207.22907 h 17.088 v -18.912 h 12.192 c 17.184,0 27.072,-9.12 27.072,-24.864 0,-14.976 -9.888,-23.424 -27.072,-23.424 h -29.28 z m 17.088,-32.352 v -21.408 h 11.328 c 7.488,0 11.808,3.552 11.808,10.56 0,7.104 -4.32,10.848 -11.808,10.848 z"
         style="font-weight:bold;-inkscape-font-specification:'Trueno Bold';stroke:#ffffff;stroke-width:7.04882;stroke-miterlimit:4;stroke-dasharray:none;stroke-opacity:1;paint-order:stroke markers fill;fill:#000000;fill-opacity:1"
         id="path939" />
      <path
         d="m 456.8754,207.22907 h 53.664 v -13.44 h -36.576 v -13.536 h 32.064 v -13.44 h -32.064 v -13.344 h 35.52 v -13.44 h -52.608 z"
         style="font-weight:bold;-inkscape-font-specification:'Trueno Bold';stroke:#ffffff;stroke-width:7.04882;stroke-miterlimit:4;stroke-dasharray:none;stroke-opacity:1;paint-order:stroke markers fill;fill:#000000;fill-opacity:1"
         id="path936" />
      <path
         d="m 521.57938,207.22907 h 16.03199 v -41.376 l 30.912,41.376 h 15.072 v -67.2 h -15.936 v 41.472 l -31.00799,-41.472 h -15.072 z"
         style="font-weight:bold;-inkscape-font-specification:'Trueno Bold';stroke:#ffffff;stroke-width:7.04882;stroke-miterlimit:4;stroke-dasharray:none;stroke-opacity:1;paint-order:stroke markers fill;fill:#000000;fill-opacity:1"
         id="path933" />
      <path
         d="m 593.57931,173.53307 c 0,19.296 15.264,34.176 34.944,34.176 9.504,0 19.2,-4.32 26.016,-11.04 l -6.72,-7.488 c -5.088,4.896 -12,7.968 -18.72,7.968 -13.44,0 -24,-10.464 -24,-23.712 0,-13.248 10.56,-23.616 24,-23.616 6.816,0 13.824,3.264 18.72,8.544 l 6.624,-8.256 c -6.528,-6.432 -16.032,-10.368 -25.536,-10.368 -19.872,0 -35.328,14.688 -35.328,33.792 z"
         id="path930"
         style="stroke:#ffffff;stroke-width:7.04882;stroke-miterlimit:4;stroke-dasharray:none;stroke-opacity:1;paint-order:stroke markers fill;fill:#000000;fill-opacity:1" />
      <path
         d="m 659.05105,173.62907 c 0,19.2 15.552,34.08 35.616,34.08 20.064,0 35.616,-14.88 35.616,-34.08 0,-19.2 -15.552,-33.888 -35.616,-33.888 -20.064,0 -35.616,14.592 -35.616,33.888 z m 11.52,0 c 0,-13.344 10.944,-23.712 24.192,-23.712 13.152,0 23.904,10.368 23.904,23.712 0,13.344 -10.752,23.904 -23.904,23.904 -13.152,0 -24.192,-10.56 -24.192,-23.904 z"
         id="path927"
         style="stroke:#ffffff;stroke-width:7.04882;stroke-miterlimit:4;stroke-dasharray:none;stroke-opacity:1;paint-order:stroke markers fill;fill:#000000;fill-opacity:1" />
      <path
         d="m 742.379,207.22907 h 10.656 v -50.208 l 21.216,43.2 h 7.392 l 21.216,-43.2 0.096,50.208 h 10.464 v -67.2 h -13.344 l -22.08,44.64 -22.176,-44.64 h -13.44 z"
         id="path924"
         style="stroke:#ffffff;stroke-width:7.04882;stroke-miterlimit:4;stroke-dasharray:none;stroke-opacity:1;paint-order:stroke markers fill;fill:#000000;fill-opacity:1" />
      <path
         d="m 831.17892,207.22907 h 11.328 v -20.256 h 15.456 c 16.896,0 26.592,-8.832 26.592,-24 0,-14.592 -9.696,-22.944 -26.592,-22.944 h -26.784 z m 11.328,-30.432 v -26.592 h 14.976 c 10.368,0 16.224,4.224 16.224,13.056 0,9.12 -5.856,13.536 -16.224,13.536 z"
         id="path921"
         style="stroke:#ffffff;stroke-width:7.04882;stroke-miterlimit:4;stroke-dasharray:none;stroke-opacity:1;paint-order:stroke markers fill;fill:#000000;fill-opacity:1" />
      <path
         d="m 894.44277,179.38907 c 0,17.568 11.136,28.32 29.28,28.32 18.144,0 29.184,-10.752 29.184,-28.32 v -39.36 h -11.328 v 39.36 c 0,11.424 -6.816,18.144 -17.76,18.144 -11.04,0 -18.048,-6.816 -18.048,-18.144 v -39.36 h -11.328 z"
         id="path918"
         style="stroke:#ffffff;stroke-width:7.04882;stroke-miterlimit:4;stroke-dasharray:none;stroke-opacity:1;paint-order:stroke markers fill;fill:#000000;fill-opacity:1" />
      <path
         d="m 961.16277,150.20507 h 21.216 v 57.024 h 11.328 v -57.024 h 21.31203 v -10.176 h -53.85603 z"
         id="path915"
         style="stroke:#ffffff;stroke-width:7.04882;stroke-miterlimit:4;stroke-dasharray:none;stroke-opacity:1;paint-order:stroke markers fill;fill:#000000;fill-opacity:1" />
      <path
         d="m 1024.7146,207.22907 h 11.328 v -67.2 h -11.328 z"
         id="path912"
         style="stroke:#ffffff;stroke-width:7.04882;stroke-miterlimit:4;stroke-dasharray:none;stroke-opacity:1;paint-order:stroke markers fill;fill:#000000;fill-opacity:1" />
      <path
         d="m 1053.7065,207.22907 h 11.328 v -48.192 l 35.808,48.192 h 11.136 v -67.2 h -11.136 v 48.288 l -36,-48.288 h -11.136 z"
         id="path909"
         style="stroke:#ffffff;stroke-width:7.04882;stroke-miterlimit:4;stroke-dasharray:none;stroke-opacity:1;paint-order:stroke markers fill;fill:#000000;fill-opacity:1" />
      <path
         d="m 1124.1704,173.62907 c 0,19.2 15.456,34.08 35.328,34.08 9.216,0 19.296,-3.552 26.112,-8.736 v -24.768 h -9.888 v 18.72 c -4.8,2.88 -10.464,4.608 -15.456,4.608 -13.728,0 -24.576,-10.464 -24.576,-23.904 0,-13.344 10.752,-23.808 24.48,-23.808 7.008,0 14.208,2.88 19.392,7.68 l 6.432,-8.352 c -6.624,-5.76 -16.224,-9.408 -25.824,-9.408 -20.352,0 -36,14.688 -36,33.888 z"
         id="path906"
         style="stroke:#ffffff;stroke-width:7.04882;stroke-miterlimit:4;stroke-dasharray:none;stroke-opacity:1;paint-order:stroke markers fill;fill:#000000;fill-opacity:1" />
      <path
         d="m 1195.3063,196.95707 c 6.912,6.336 16.896,10.656 27.456,10.656 14.784,0 25.344,-7.392 25.344,-19.392 0.096,-24.192 -36.192,-16.32 -36.192,-31.008 0,-4.512 4.32,-7.008 10.944,-7.008 5.088,0 12.384,1.824 19.68,6.24 l 4.704,-9.984 c -6.24,-4.128 -14.784,-6.912 -23.52,-6.912 -14.592,0 -24.48,7.2 -24.48,18.72 0,23.904 36.288,15.552 36.288,30.528 0,5.184 -4.704,8.16 -12.576,8.16 -7.2,0 -15.84,-3.456 -22.752,-9.792 z"
         id="path903"
         style="stroke:#ffffff;stroke-width:7.04882;stroke-miterlimit:4;stroke-dasharray:none;stroke-opacity:1;paint-order:stroke markers fill;fill:#000000;fill-opacity:1" />
    </g>
    <path
       id="path28021"
       style="fill:none;stroke:#162d50;stroke-width:5.555;stroke-linecap:butt;stroke-miterlimit:4;stroke-dasharray:none;stroke-opacity:1"
       d="M 60.16803,59.73246 A 22.230154,22.230247 0 0 1 35.210549,68.9398 22.230154,22.230247 0 0 1 19.2941,47.625 22.230154,22.230247 0 0 1 35.21055,26.3102 22.230154,22.230247 0 0 1 60.16803,35.51754" />
    <path
       style="fill:none;stroke:#2c5aa0;stroke-width:10;stroke-miterlimit:4;stroke-dasharray:none;stroke-opacity:1"
       id="path28990"
       transform="rotate(90)"
       d="m 57.586264,-36.788561 a 10.991038,10.991038 0 0 1 -12.34016,6.085493 10.991038,10.991038 0 0 1 -8.612142,-10.730507 10.991038,10.991038 0 0 1 8.612142,-10.730507 10.991038,10.991038 0 0 1 12.34016,6.085494" />
  </g>
</svg>
